<?xml version="1.0" encoding="UTF-8" standalone="no"?>
<svg
   xmlns:dc="http://purl.org/dc/elements/1.1/"
   xmlns:cc="http://creativecommons.org/ns#"
   xmlns:rdf="http://www.w3.org/1999/02/22-rdf-syntax-ns#"
   xmlns:svg="http://www.w3.org/2000/svg"
   xmlns="http://www.w3.org/2000/svg"
   xmlns:sodipodi="http://sodipodi.sourceforge.net/DTD/sodipodi-0.dtd"
   xmlns:inkscape="http://www.inkscape.org/namespaces/inkscape"
   viewBox="0 0 30207 39995"
   version="1.1"
   id="svg2"
   width="100%"
   height="100%">
  <g
     style="fill:#f2f2f2; fill-opacity:1; stroke:#b9b9b9; stroke-opacity:1; stroke-width:100;"
     id="g4">
    <polygon
       id="97601 Acoua"
       points="2568,11776 4138,10150 3826,9500 2727,9374 3519,7003 4494,8216 8378,8636 8241,10501 5250,10814 2568,12159 2568,12159 " />
    <polygon
       id="97602 Bandraboua"
       points="11590,12878 8961,11377 8241,10501 8378,8636 8437,7880 7607,5714 8314,3901 9957,5423 10389,6466 11760,7119 11414,7790 11922,8803 11575,9814 11933,9944 12847,10432 13714,10042 15127,13770 15127,13770 " />
    <polygon
       id="97603 Bandrele"
       points="21347,27562 20453,28195 19436,28615 19014,29635 19210,30343 19957,31128 18177,30980 17097,32370 17336,33368 17193,33701 16481,33797 16209,34461 17530,36494 19583,37547 19531,37903 18932,38403 17772,38496 16896,39108 16645,38011 16152,37462 15409,37302 14900,37859 14936,38237 13614,37677 13196,36291 14743,36042 15140,34943 15995,30323 15566,26823 17337,27577 18884,27425 21989,25882 21989,25882 " />
    <polygon
       id="97604 Bouéni"
       points="8071,35056 8765,34262 9117,32835 8929,32140 7544,32035 6879,31201 5716,28979 6814,28895 8717,29072 8935,30168 9364,31543 11070,32223 11564,32760 11626,32753 10873,33886 9413,34339 8034,35658 6518,35859 6518,35859 " />
    <polygon
       id="97605 Chiconi"
       points="9414,21957 8907,21534 9414,19771 8804,18887 8747,18151 11183,18829 11555,21372 11111,22382 10854,22445 10854,22445 " />
    <polygon
       id="97606 Chirongui"
       points="10873,33886 11626,32753 12736,33098 13858,32837 14718,31565 14607,31191 12959,28123 12264,27806 12927,25654 14625,26161 15566,26823 15995,30323 15140,34943 14743,36042 13196,36291 13196,36291 " />
    <polygon
       id="97607 Dembeni"
       points="18884,27425 17337,27577 15566,26823 14625,26161 13684,22097 13032,21721 14706,20173 19382,20437 18933,20971 19023,21669 18184,22301 18072,22636 18409,22753 19088,22968 19226,23689 20045,24905 20760,25110 20921,25838 21989,25882 21989,25882 " />
    <polygon
       id="97608 Dzaoudzi"
       points="25898,16209 26976,16545 27745,15273 28780,13722 29597,14472 30207,15866 30091,16228 27285,17185 27285,17185 " />
    <polygon
       id="97609 Kani-Kéli"
       points="14978,38513 14997,38888 14033,39995 13301,39880 12605,39035 11657,39559 11370,38107 10650,37993 9684,39071 9399,38847 9909,36317 9780,35582 9434,35433 7936,36389 6518,35859 8034,35658 9413,34339 10873,33886 13196,36291 13614,37677 14936,38237 14936,38237 " />
    <polygon
       id="97610 Koungou"
       points="19461,14146 16705,13941 15127,13770 13714,10042 14085,10106 14423,10777 15121,10762 15964,9162 17047,10133 18458,10162 19922,10248 20872,10758 21139,10500 20996,11224 21234,11506 22260,11832 23633,12903 23633,12903 " />
    <polygon
       id="97611 Mamoudzou"
       points="14706,20173 14472,18417 16511,15087 16705,13941 19461,14146 23633,12903 23689,13972 23312,15041 23034,14776 23074,13876 22385,15133 22994,15358 23493,15992 23289,16149 21996,16991 21166,18231 20241,18912 20054,20014 19409,20424 19382,20437 19382,20437 " />
    <path
       id="97612 Mtsamboro"
       d="m 2368,1037 45,190 L 1318,1976 1005,1317 107,1010 0,846 781,8 976,0 2368,1037 z m 6010,7599 -3884,-420 -975,-1213 73,-97 1052,216 1047,-1054 -127,-1063 747,92 18,-1 574,-513 248,-1119 878,-747 -56,-386 1050,-334 -121,681 -1237,913 649,310 -707,1813 830,2166 -59,756 z" />
    <polygon
       id="97613 M'Tsangamouji"
       points="9078,14770 8638,14221 7982,14598 6989,14067 6258,14273 4575,12722 3471,12868 2568,12159 5250,10814 8241,10501 8961,11377 11590,12878 8952,15496 8952,15496 " />
    <polygon
       id="97614 Ouangani"
       points="12927,25654 11951,25032 11111,22382 11555,21372 11183,18829 12294,19084 14472,18417 14706,20173 13032,21721 13684,22097 14625,26161 14625,26161 " />
    <polygon
       id="97615 Pamandzi"
       points="30068,16252 29980,17384 28920,18428 28616,19455 27285,17185 30091,16228 30091,16228 " />
    <polygon
       id="97616 Sada"
       points="12162,27591 11279,26947 9997,25088 8692,24427 8230,23806 8442,23482 9050,23000 10854,22445 11111,22382 11951,25032 12927,25654 12264,27806 12264,27806 " />
    <polygon
       id="97617 Tsingoni"
       points="12294,19084 11183,18829 8747,18151 9075,17627 10071,17448 9985,17121 8593,17007 8333,16337 8952,15496 11590,12878 15127,13770 16705,13941 16511,15087 14472,18417 14472,18417 " />
  </g>
</svg>
