<?xml version="1.0" encoding="UTF-8" standalone="no"?>
<svg
   xmlns:dc="http://purl.org/dc/elements/1.1/"
   xmlns:cc="http://creativecommons.org/ns#"
   xmlns:rdf="http://www.w3.org/1999/02/22-rdf-syntax-ns#"
   xmlns:svg="http://www.w3.org/2000/svg"
   xmlns="http://www.w3.org/2000/svg"
   xmlns:sodipodi="http://sodipodi.sourceforge.net/DTD/sodipodi-0.dtd"
   xmlns:inkscape="http://www.inkscape.org/namespaces/inkscape"
   viewBox="0 0 64287 56972"
   version="1.1"
   id="svg2"
   inkscape:version="0.48.4 r9939"
   width="100%"
   height="100%"
   sodipodi:docname="Blank_Map_of_Réunion_Department,_France,_with_Communes.svg">
  <metadata
     id="metadata34">
    <rdf:RDF>
      <cc:Work
         rdf:about="">
        <dc:format>image/svg+xml</dc:format>
        <dc:type
           rdf:resource="http://purl.org/dc/dcmitype/StillImage" />
      </cc:Work>
    </rdf:RDF>
  </metadata>
  <defs
     id="defs32" />
  <sodipodi:namedview
     pagecolor="#ffffff"
     bordercolor="#666666"
     borderopacity="1"
     objecttolerance="10"
     gridtolerance="10"
     guidetolerance="10"
     inkscape:pageopacity="0"
     inkscape:pageshadow="2"
     inkscape:window-width="1863"
     inkscape:window-height="1056"
     id="namedview30"
     showgrid="false"
     inkscape:zoom="0.01592725"
     inkscape:cx="32143.5"
     inkscape:cy="28486"
     inkscape:window-x="57"
     inkscape:window-y="24"
     inkscape:window-maximized="1"
     inkscape:current-layer="svg2" />
  <g
     style="fill:#f2f2f2; fill-opacity:1; stroke:#b9b9b9; stroke-opacity:1; stroke-width:200;"
     id="g4">
    <polygon
       id="97401 LES AVIRONS"
       points="16654,36845 14490,39130 14711,41055 14240,42553 11620,41776 11123,42350 10978,41888 12241,39502 12801,37634 17330,32799 17914,31782 19652,30246 19639,30531 19053,32328 18066,33453 17666,34845 17666,34845 17498,34220 " />
    <polygon
       id="97402 BRAS-PANON"
       points="47160,16093 46825,17556 44098,17884 41890,18645 38391,23379 37623,23389 35588,22212 34814,22186 35756,20956 35728,19381 35120,17994 35616,16501 37764,14869 38148,14221 40036,14182 40743,13847 41177,13206 42278,12937 44163,11578 45331,11666 47145,12336 50155,11601 50180,14622 50180,14622 47899,15165 " />
    <polygon
       id="97403 ENTRE-DEUX"
       points="25385,40489 25604,35794 27987,34714 28877,33982 30159,29615 32253,29159 31810,30227 32732,33597 32628,34365 31244,34899 30975,36429 30516,37060 30739,38953 30560,39300 29421,40349 28713,40638 28387,41630 27472,42355 26521,42975 26561,43744 26044,44777 24996,45859 24996,45859 25815,42829 " />
    <polygon
       id="97404 L'ÉTANG-SALÉ"
       points="13040,45420 12271,44572 12027,43066 11123,42350 11620,41776 14240,42553 14711,41055 14490,39130 16654,36845 17498,34220 17666,34845 17338,36354 18178,37632 17918,39950 18413,42618 17314,45494 18329,46657 18329,46657 15747,45789 " />
    <polygon
       id="97405 PETITE-ÎLE"
       points="35756,55281 35007,55397 33441,54307 34553,49819 37765,48489 39348,46301 40435,45956 40463,47103 38939,48798 38708,49533 38505,50668 38974,51708 38957,53255 38830,54016 38292,54556 38320,55315 38320,55315 37232,55703 " />
    <polygon
       id="97406 LA PLAINE-DES-PALMISTES"
       points="41958,34202 40783,34123 39083,33172 37904,29567 37002,28886 38191,27946 39654,28395 41116,27861 42837,26950 43829,25729 44962,25464 45951,26096 51885,33038 50811,33528 49646,34574 48094,34519 46209,36492 46209,36492 43587,32621 " />
    <polygon
       id="97407 LE PORT"
       points="7216,9540 6132,9705 7045,7274 7042,6205 7779,6131 10742,6861 11605,6348 11198,7410 11457,8074 10468,10929 10468,10929 9034,9821 " />
    <polygon
       id="97408 LA POSSESSION"
       points="22883,24370 21390,24819 20677,24544 19605,23412 20482,22116 20610,21360 19355,19864 18970,17536 19227,16384 18812,15287 17567,14321 16435,14002 15810,13004 14320,11713 10468,10929 11457,8074 11198,7410 11605,6348 12983,5720 13850,4496 16291,2774 16500,3935 17525,5596 18074,7475 19498,9340 19328,12076 22931,13297 24174,14254 25289,15863 25355,17009 24586,17848 24541,20558 23807,21428 23817,21816 25699,23679 25699,23679 24169,23540 " />
    <polygon
       id="97409 SAINT-ANDRÉ"
       points="39306,10698 41963,9044 43101,8826 44133,7641 44330,7299 44063,6573 42803,5649 42603,4130 44475,4631 46472,5824 48293,7806 49702,10116 50155,11601 47145,12336 45331,11666 44163,11578 42278,12937 41177,13206 40743,13847 40036,14182 38148,14221 38148,14221 37020,13377 " />
    <polygon
       id="97410 SAINT-BENOÎT"
       points="44962,25464 43829,25729 42837,26950 41116,27861 39654,28395 38191,27946 37002,28886 35202,29403 34128,29069 32253,29159 30159,29615 29868,27719 28945,26493 29815,25201 31136,24373 31708,23362 32796,23191 34814,22186 35588,22212 37623,23389 38391,23379 41890,18645 44098,17884 46825,17556 47160,16093 47899,15165 50180,14622 50827,16873 52138,17693 53307,19268 53406,20428 53944,21478 57186,25385 55740,26704 54674,28339 54819,30219 53881,31926 53343,32487 51885,33038 51885,33038 45951,26096 " />
    <polygon
       id="97411 SAINT-DENIS"
       points="22931,13297 19328,12076 19498,9340 18074,7475 17525,5596 16500,3935 16291,2774 18444,1107 21073,325 23011,525 24031,0 25953,1333 27895,1530 29407,1124 29910,4219 30535,5646 29514,6815 28369,10097 28403,12810 27411,13421 26089,15281 25289,15863 25289,15863 24174,14254 " />
    <polygon
       id="97412 SAINT-JOSEPH"
       points="47674,56288 46127,56463 45059,56972 43625,56394 40933,56806 38709,55247 38320,55315 38292,54556 38830,54016 38957,53255 38974,51708 38505,50668 38708,49533 38939,48798 40463,47103 40435,45956 40169,44223 40020,41922 40458,39656 41589,37186 43041,35892 43745,35593 45060,36427 45532,37497 45540,38623 44875,39981 45097,40288 48117,40578 48540,43290 49557,44466 49093,47957 50276,50872 50218,52443 50943,54262 51008,55051 50497,55652 50497,55652 48537,55509 " />
    <polygon
       id="97413 SAINT-LEU"
       points="6869,36888 7392,34574 7320,32208 5674,30569 5709,29384 6863,29186 10406,27631 13827,26953 20708,27821 19516,29552 19652,30246 17914,31782 17330,32799 12801,37634 12241,39502 10978,41888 10978,41888 8147,39782 " />
    <polygon
       id="97414 SAINT-LOUIS"
       points="17314,45494 18413,42618 17918,39950 18178,37632 17338,36354 17666,34845 18066,33453 19053,32328 19639,30531 20628,32617 22453,34598 23373,35276 25604,35794 25385,40489 25815,42829 24996,45859 21312,46865 19662,47848 19662,47848 18329,46657 " />
    <polygon
       id="97415 SAINT-PAUL"
       points="10655,24563 8708,24878 3887,26560 1759,24801 542,23231 354,22466 641,20503 0,19057 8,18659 189,18304 1801,16553 2986,16553 4103,16140 6176,14314 6698,11598 6132,9705 7216,9540 9034,9821 10468,10929 14320,11713 15810,13004 16435,14002 17567,14321 18812,15287 19227,16384 18970,17536 19355,19864 20610,21360 20482,22116 19605,23412 20677,24544 21390,24819 22883,24370 24169,23540 25699,23679 24410,25517 21407,27124 21407,27124 18879,25244 " />
    <polygon
       id="97416 SAINT-PIERRE"
       points="28206,53002 27327,52248 25800,52043 25453,51857 24452,50668 22137,50242 21102,49681 19662,47848 21312,46865 24996,45859 26044,44777 26561,43744 26521,42975 27472,42355 29902,45400 31140,46358 30994,47125 33130,48834 34645,48453 36984,47020 37925,45772 40169,44223 40435,45956 39348,46301 37765,48489 34553,49819 33441,54307 33441,54307 29772,53026 " />
    <polygon
       id="97417 SAINT-PHILIPPE"
       points="50943,54262 50218,52443 50276,50872 49093,47957 49557,44466 48540,43290 48117,40578 61152,41812 60949,42964 61510,45645 61210,48388 61657,50710 61508,51077 60648,52408 58821,53923 58126,54302 57734,54356 56167,54228 55483,54620 50497,55652 50497,55652 51008,55051 " />
    <polygon
       id="97418 SAINTE-MARIE"
       points="28403,12810 28369,10097 29514,6815 30535,5646 29910,4219 29407,1124 33565,2406 35497,2144 37046,2428 37211,3193 36748,4275 36740,5453 37288,7329 36348,8560 33547,14585 31303,15058 30104,14167 26089,15281 26089,15281 27411,13421 " />
    <polygon
       id="97419 SAINTE-ROSE"
       points="45097,40288 44875,39981 45540,38623 45532,37497 46209,36492 48094,34519 49646,34574 50811,33528 51885,33038 53343,32487 53881,31926 54819,30219 54674,28339 55740,26704 57186,25385 58769,27599 60287,27847 61777,29116 63187,29772 64097,31504 64287,33832 64213,34218 63285,34859 63158,36421 62180,37613 61547,39831 61152,41812 61152,41812 48117,40578 " />
    <polygon
       id="97420 SAINTE-SUZANNE"
       points="33547,14585 36348,8560 37288,7329 36740,5453 36748,4275 37211,3193 37046,2428 37738,2732 38848,2576 41847,4174 42603,4130 42803,5649 44063,6573 44330,7299 44133,7641 43101,8826 41963,9044 39306,10698 37020,13377 37020,13377 35072,14692 " />
    <polygon
       id="97421 SALAZIE"
       points="25699,23679 23817,21816 23807,21428 24541,20558 24586,17848 25355,17009 25289,15863 26089,15281 30104,14167 31303,15058 33547,14585 35072,14692 37020,13377 38148,14221 37764,14869 35616,16501 35120,17994 35728,19381 35756,20956 34814,22186 32796,23191 31708,23362 31136,24373 29815,25201 28945,26493 28945,26493 26980,24411 " />
    <polygon
       id="97422 LE TAMPON"
       points="36984,47020 34645,48453 33130,48834 30994,47125 31140,46358 29902,45400 27472,42355 28387,41630 28713,40638 29421,40349 30560,39300 30739,38953 30516,37060 30975,36429 31244,34899 32628,34365 32732,33597 31810,30227 32253,29159 34128,29069 35202,29403 37002,28886 37904,29567 39083,33172 40783,34123 41958,34202 43587,32621 46209,36492 45532,37497 45060,36427 43745,35593 43041,35892 41589,37186 40458,39656 40020,41922 40169,44223 40169,44223 37925,45772 " />
    <polygon
       id="97423 LES TROIS-BASSINS"
       points="3887,26560 8708,24878 10655,24563 18879,25244 21407,27124 20708,27821 13827,26953 10406,27631 6863,29186 5709,29384 5709,29384 4048,27280 " />
    <polygon
       id="97424 CILAOS"
       points="22453,34598 20628,32617 19639,30531 19652,30246 19516,29552 20708,27821 21407,27124 24410,25517 25699,23679 26980,24411 28945,26493 29868,27719 30159,29615 28877,33982 27987,34714 25604,35794 25604,35794 23373,35276 " />
  </g>
</svg>
